<svg xmlns="http://www.w3.org/2000/svg" width="24" height="24" viewBox="0 0 24 24" fill="none">
  <circle cx="12" cy="12" r="10" fill="#8B5CF6"/>
  <path d="M12 17.5C12.8284 17.5 13.5 16.8284 13.5 16C13.5 15.1716 12.8284 14.5 12 14.5C11.1716 14.5 10.5 15.1716 10.5 16C10.5 16.8284 11.1716 17.5 12 17.5Z" fill="white"/>
  <path d="M12 6C9.79086 6 8 7.79086 8 10H10C10 8.89543 10.8954 8 12 8C13.1046 8 14 8.89543 14 10C14 10.7403 13.5978 11.3866 13 11.7324V13H11V11C11 10.4477 11.4477 10 12 10C12.5523 10 13 9.55228 13 9C13 8.44772 12.5523 8 12 8C11.4477 8 11 8.44772 11 9H9C9 7.34315 10.3431 6 12 6Z" fill="white"/>
  <path d="M11 11V13H13V11C13.5978 10.6134 14 9.9671 14 9.22676C14 8.00419 13.1046 7 12 7C10.8954 7 10 8.00419 10 9.22676C10 9.9671 10.4022 10.6134 11 11Z" fill="white"/>
</svg>
